# xmcd
#
# Track frame offsets:
#	150
#	11756
#	24525
#	38028
#	61802
#	78277
#	98854
#	115113
#	134248
#	157241
#	167947
#	184596
#	201995
#	222639
#	236159
#	251030
#	270856
#	288809
#	307230
#	322551
#
# Disc length: 4463 seconds
#
# Revision: 0
# Processed by: cddbd v1.5.2PL0 Copyright (c) Steve Scherf et al.
# Submitted via: EasyCDDAExtractor 2010.6.0.0
#
DISCID=21116d14
DTITLE=Various Artist - 100 Country Hits
DYEAR=1900
DGENRE=country
TTITLE0=Roy Orbirson - Blue Bayou
TTITLE1=Johnny Cash and June Carter - Jackson
TTITLE2=Charlie Rich - Behind Closed Doors
TTITLE3=New Riders Of The Purple Sage - Last Lonely Eagle
TTITLE4=Charlie Daniels - The Devil Went Down To Georgia
TTITLE5=Kris Kristofferson - Sunday Morning Coming Down
TTITLE6=Byrds - Hickory Wind
TTITLE7=Dan Fogelberg and Emmylou Harris - Only The Heart May Know
TTITLE8=Poco - Bad Weather
TTITLE9=Willie Nelson - Blue Eyes Grying In The Rain
TTITLE10=Tammy Wynette and Mark Grey - Sometimes When We Touch
TTITLE11=JD Souther - Your'e Only Lonely
TTITLE12=Dolly Parton - The River Unbroken
TTITLE13=John Denver - I Guess He'd Rather Be In Colarado
TTITLE14=Ricky Skaggs - Heartbroke
TTITLE15=Rosanne Cash - The Wheel
TTITLE16=Rodney Crowell - Even The Cowgirls Get The Blues
TTITLE17=Joy White - Cold Daynu In July
TTITLE18=Ricky Van Shelton - Life Turned Her That Way
TTITLE19=Tanya Tucker - You Are So Beutiful
EXTD=
EXTT0=
EXTT1=
EXTT2=
EXTT3=
EXTT4=
EXTT5=
EXTT6=
EXTT7=
EXTT8=
EXTT9=
EXTT10=
EXTT11=
EXTT12=
EXTT13=
EXTT14=
EXTT15=
EXTT16=
EXTT17=
EXTT18=
EXTT19=
PLAYORDER=
